HIERARCHY
ROOT Pelvis
{

	OFFSET     0.000000     0.000000     0.000000
	CHANNELS 6 Xposition Yposition Zposition Zrotation Xrotation Yrotation
	JOINT LowerBack
	{

		OFFSET    -0.000691     0.176488     0.017766
		CHANNELS 3 Zrotation Xrotation Yrotation
		JOINT Chest
		{

			OFFSET    -0.002754     0.128976    -0.000512
			CHANNELS 3 Zrotation Xrotation Yrotation
			JOINT back3
			{

				OFFSET     0.002471     0.201657    -0.000850
				CHANNELS 3 Zrotation Xrotation Yrotation
				JOINT Neck
				{

					OFFSET     0.001840     0.072570     0.000595
					CHANNELS 3 Zrotation Xrotation Yrotation
					JOINT Head
					{

						OFFSET     0.003323     0.152818     0.030907
						CHANNELS 3 Zrotation Xrotation Yrotation
						JOINT joint7
						{

							OFFSET     0.000612     0.183936     0.002625
							CHANNELS 3 Zrotation Xrotation Yrotation
							End Site
							{
								OFFSET     0.000000     0.000000     0.018310
							}
						}

					}

				}

				JOINT LeftCollar
				{

					OFFSET     0.053456     0.093486     0.002205
					CHANNELS 3 Zrotation Xrotation Yrotation
					JOINT LeftShoulder
					{

						OFFSET     0.112884    -0.020868     0.002319
						CHANNELS 3 Zrotation Xrotation Yrotation
						JOINT LeftElbow
						{

							OFFSET     0.297302     0.003523    -0.020737
							CHANNELS 3 Zrotation Xrotation Yrotation
							JOINT LeftWrist
							{

								OFFSET     0.290007     0.004431    -0.007313
								CHANNELS 3 Zrotation Xrotation Yrotation
								JOINT lf_hand
								{

									OFFSET     0.117001    -0.002589    -0.008771
									CHANNELS 3 Zrotation Xrotation Yrotation
									End Site
									{
										OFFSET     0.000000    -0.009821     0.000000
									}
								}

							}

						}

					}

				}

				JOINT RightCollar
				{

					OFFSET    -0.048666     0.096092     0.000301
					CHANNELS 3 Zrotation Xrotation Yrotation
					JOINT RightShoulder
					{

						OFFSET    -0.115072    -0.022479    -0.001894
						CHANNELS 3 Zrotation Xrotation Yrotation
						JOINT RightElbow
						{

							OFFSET    -0.297072     0.004954    -0.020752
							CHANNELS 3 Zrotation Xrotation Yrotation
							JOINT RightWrist
							{

								OFFSET    -0.292425    -0.005826    -0.023258
								CHANNELS 3 Zrotation Xrotation Yrotation
								JOINT rt_hand
								{

									OFFSET    -0.118185    -0.001061    -0.015047
									CHANNELS 3 Zrotation Xrotation Yrotation
									End Site
									{
										OFFSET     0.000000    -0.009987     0.000000
									}
								}

							}

						}

					}

				}

			}

			JOINT joint13
			{

				OFFSET     0.125914     0.117470     0.000000
				CHANNELS 3 Zrotation Xrotation Yrotation
				End Site
				{
					OFFSET     0.000000     0.000000    -0.017144
				}
			}

			JOINT joint14
			{

				OFFSET    -0.120063     0.114907     0.000000
				CHANNELS 3 Zrotation Xrotation Yrotation
				End Site
				{
					OFFSET     0.000000     0.000000    -0.016479
				}
			}

		}

	}

	JOINT RightHip
	{

		OFFSET    -0.109283    -0.057257     0.000987
		CHANNELS 3 Zrotation Xrotation Yrotation
		JOINT RightKnee
		{

			OFFSET     0.002149    -0.429339     0.038617
			CHANNELS 3 Zrotation Xrotation Yrotation
			JOINT RightAnkle
			{

				OFFSET    -0.001765    -0.522522    -0.077092
				CHANNELS 3 Zrotation Xrotation Yrotation
				JOINT r_ball
				{

					OFFSET    -0.000000    -0.037315     0.142913
					CHANNELS 3 Zrotation Xrotation Yrotation
					End Site
					{
						OFFSET     0.000000     0.000000     0.014648
					}
				}

			}

		}

	}

	JOINT LeftHip
	{

		OFFSET     0.098180    -0.056757     0.003895
		CHANNELS 3 Zrotation Xrotation Yrotation
		JOINT LeftKnee
		{

			OFFSET     0.007057    -0.430531     0.035812
			CHANNELS 3 Zrotation Xrotation Yrotation
			JOINT LeftAnkle
			{

				OFFSET    -0.005475    -0.521755    -0.078136
				CHANNELS 3 Zrotation Xrotation Yrotation
				JOINT lf_ball
				{

					OFFSET     0.000065    -0.036737     0.143337
					CHANNELS 3 Zrotation Xrotation Yrotation
					End Site
					{
						OFFSET     0.000000     0.000000     0.014648
					}
				}

			}

		}

	}

}

MOTION
Frames: 9
Frame Time: 0.033333
    0.000000     0.956602     0.000000     5.689559     3.798295   -43.759102    -1.040131    -5.342678    10.843752    -9.135003     9.292277     6.012383     0.000000     0.000000     0.000000     0.000000     0.000000     0.000000     6.440319   -19.707010   -15.300344     0.000000     0.000000     0.000000    15.964233     6.362499    21.203718   -94.028801     8.516082     2.782181     0.496306     1.449750   -37.794487    14.483698    11.412219    10.060787     0.000000     0.000000     0.000000   -21.042046     0.020929    -0.074381    94.674362    32.201797     0.634188    -0.613201     1.585952    42.275433    -5.325550    -4.625112    -0.895260     0.000000     0.000000     0.000000     0.000000     0.000000     0.000000     0.000000     0.000000     0.000000     8.282116    18.973917   -14.599972     0.000000   -17.616798     0.000000    10.796268    13.739565   -16.176188     0.000000     0.000000     0.000000    -7.801784    -3.434811    14.920696     0.000000   -22.611633     0.000000    -5.011556    22.787905    15.278330     0.000000     0.000000     0.000000 
   -0.015346     0.968600     0.038637     5.411081     3.699207   -43.076401    -0.492052    -6.427301     8.991711    -7.749802     7.904893     5.696715     0.000000     0.000000     0.000000     0.000000     0.000000     0.000000     4.892529   -15.838298   -14.420495     0.000000     0.000000     0.000000    15.487793     4.898750    17.155632   -94.939079     2.114696     7.927237     0.496864     1.449554   -37.838741    12.342987    14.575363    10.676730     0.000000     0.000000     0.000000   -20.948793     0.030290    -0.086881    95.641472    27.960695    -1.824119    -0.597409     1.569354    41.678799    -6.504931    -3.098664    -0.232214     0.000000     0.000000     0.000000     0.000000     0.000000     0.000000     0.000000     0.000000     0.000000     7.937063    23.580410   -15.676514     0.000000   -22.691216     0.000000    10.443271    19.465445   -15.492655     0.000000     0.000000     0.000000    -4.556146    -2.301589     9.105972     0.000000   -22.662401     0.000000    -9.267414    24.945240    19.597301     0.000000     0.000000     0.000000 
   -0.030315     0.977902     0.077842     5.177019     3.595566   -42.370903     0.067650    -7.739131     7.118322    -6.411362     6.395473     5.475752     0.000000     0.000000     0.000000     0.000000     0.000000     0.000000     3.228823   -11.578755   -13.563136     0.000000     0.000000     0.000000    14.884319     3.534475    13.086076   -95.338371    -4.396741    13.082278     0.497422     1.449357   -37.883003    10.123930    17.720139    11.432629     0.000000     0.000000     0.000000   -20.807415     0.011934    -0.026259    96.191444    23.329805    -4.173201    -0.578512     1.546633    41.014252    -7.900169    -1.492439     0.486130     0.000000     0.000000     0.000000     0.000000     0.000000     0.000000     0.000000     0.000000     0.000000     7.135856    25.196440   -17.337997     0.000000   -22.669262     0.000000     7.022364    26.447571   -12.005767     0.000000     0.000000     0.000000    -2.560723    -1.785538     5.595786     0.000000   -22.674744     0.000000   -12.060793    25.974960    22.244162     0.000000     0.000000     0.000000 
   -0.046038     0.971600     0.115912     4.982992     3.490297   -41.668194     0.478228    -8.648251     5.299259    -5.005198     5.110242     5.159372     0.000000     0.000000     0.000000     0.000000     0.000000     0.000000     1.406947    -7.952862   -12.593419     0.000000     0.000000     0.000000    14.205919     2.610604    10.245440   -95.268639    -6.965724    16.559589     0.500947     1.455594   -37.980473     8.703988    18.959143    11.812727     0.000000     0.000000     0.000000   -20.693539     0.001256    -0.006882    96.064957    18.702784    -5.720558    -0.562866     1.530164    40.389843    -9.226212     0.049672     1.211447     0.000000     0.000000     0.000000     0.000000     0.000000     0.000000     0.000000     0.000000     0.000000     6.452003    27.632578   -18.204590     0.007435   -22.689840     0.001492     5.720039    28.847897   -10.203194     0.000000     0.000000     0.000000    -4.118805     0.181491     4.887114     0.000000   -18.947647     0.000000    -6.782073    15.882168    19.554192     0.000000     0.000000     0.000000 
   -0.063648     0.975257     0.151143     4.767820     3.383378   -40.962799     0.669652    -8.531770     3.613779    -3.466305     4.367258     4.538484     0.000000     0.000000     0.000000     0.000000     0.000000     0.000000    -0.592691    -5.989516   -11.425707     0.000000     0.000000     0.000000    13.465619     2.320818     9.637083   -95.261848    -2.222261    16.756348     0.501376     1.455378   -38.015839     8.578064    16.774847    11.639639     0.000000     0.000000     0.000000   -20.678467     0.045756    -0.133870    95.321442    14.531524    -5.847794    -0.549072     1.512769    39.895741   -10.149158     1.381435     1.928171     0.000000     0.000000     0.000000     0.000000     0.000000     0.000000     0.000000     0.000000     0.000000     4.882171    20.199966   -19.652151     0.000000   -10.909518     0.000000     3.105056    30.740307   -13.180620     0.000000     0.000000     0.000000    -4.152453    -0.782360     3.997494     0.000000   -12.097106     0.000000    -9.754695    12.788303    20.188829     0.000000     0.000000     0.000000 
   -0.083021     0.980270     0.182188     4.523862     3.269570   -40.281467     0.692936    -7.311121     1.957925    -1.752093     4.090162     3.563453     0.000000     0.000000     0.000000     0.000000     0.000000     0.000000    -2.712387    -5.786049    -9.958221     0.000000     0.000000     0.000000    12.749799     2.347342    10.292295   -95.168762     6.223591    14.417413     0.501862     1.455237   -38.053482     9.288580    12.702621    11.007760     0.000000     0.000000     0.000000   -20.842203     0.195025    -0.518947    94.475433    11.541428    -4.827684    -0.540790     1.500886    39.627747   -10.384558     2.356151     2.533345     0.000000     0.000000     0.000000     0.000000     0.000000     0.000000     0.000000     0.000000     0.000000     1.484776     5.791500   -22.830990     0.000000    11.535356     0.000000    -1.404580    33.414379   -20.499096     0.000000     0.000000     0.000000    -3.854938    -0.986721     3.516224     0.000000    -8.374598     0.000000   -13.782007    14.165152    21.010559     0.000000     0.000000     0.000000 
   -0.103696     0.985262     0.210252     4.190856     3.148294   -39.607037     0.698650    -5.491650     0.257607     0.037121     3.954733     2.371701     0.000000     0.000000     0.000000     0.000000     0.000000     0.000000    -4.774086    -6.589717    -8.213386     0.000000     0.000000     0.000000    12.285422     2.298209    10.493178   -94.870758    12.279963    11.666987     0.512827     1.473533   -38.376678    10.363159     9.441433     9.766253     0.000000     0.000000     0.000000   -21.504929     0.635967    -1.623853    94.488419    11.680254    -4.267351    -0.549072     1.512769    39.895741    -8.541252     2.639500     3.004677     0.000000     0.000000     0.000000     0.000000     0.000000     0.000000     0.000000     0.000000     0.000000    -0.814932    -4.550069   -25.156816     0.000000    25.386190     0.000000    -3.239685    33.297386   -26.580782     0.000000     0.000000     0.000000    -4.039351     2.229883     3.902082     0.000000   -11.400999     0.000000   -14.149666    17.343590    20.551907     0.000000     0.000000     0.000000 
   -0.126294     0.988734     0.237466     3.763143     3.018781   -38.981594     0.715274    -3.304301    -1.407053     1.895892     3.915208     1.055241     0.000000     0.000000     0.000000     0.000000     0.000000     0.000000    -6.619161    -8.185347    -6.272272     0.000000     0.000000     0.000000    12.128057     2.031336     9.399694   -94.615662    13.586167     9.715054     0.534558     1.495723   -39.331100    12.051985     8.163803     7.283870     0.000000     0.000000     0.000000   -22.511082     1.332411    -3.216386    94.986290    14.469354    -4.357886    -0.568430     1.535488    40.626671    -5.289524     2.274217     3.258166     0.000000     0.000000     0.000000     0.000000     0.000000     0.000000     0.000000     0.000000     0.000000    -0.101076    -7.518032   -24.744102     0.000000    23.948118     0.000000    -2.596331    29.118050   -26.238861     0.000000     0.000000     0.000000    -4.374083     6.841069     4.631993     0.000000   -17.006182     0.000000   -12.724251    21.149076    19.481474     0.000000     0.000000     0.000000 
   -0.151439     0.989186     0.265957     3.203022     2.879181   -38.387077     0.735977    -1.020009    -3.008873     3.776186     3.974250    -0.278139     0.000000     0.000000     0.000000     0.000000     0.000000     0.000000    -7.894176   -10.737431    -4.187566     0.000000     0.000000     0.000000    12.209173     1.691648     7.826358   -94.374939    12.847645     8.076216     0.567627     1.535781   -40.566875    14.114381     7.579215     4.135536     0.000000     0.000000     0.000000   -23.165749     1.857879    -4.355685    94.760330    17.150890    -4.169031    -0.587617     1.558361    41.318298    -3.349012     1.610199     3.135068     0.000000     0.000000     0.000000     0.000000     0.000000     0.000000     0.000000     0.000000     0.000000     2.032482    -7.804885   -23.087791     0.000000    16.216667     0.000000    -0.887490    22.954821   -23.055801     0.000000     0.000000     0.000000    -4.266674    10.450685     5.045496     0.000000   -19.998938     0.000000   -12.456758    23.030033    18.699942     0.000000     0.000000     0.000000 
